Coordinates
version=1
nRows=49
nColumns=12
inDegrees=yes

Units are S.I. units (second, meters, Newtons, ...)
Angles are in degrees

endheader
time	SC_y	SC_z	SC_x	AC_y	AC_z	AC_x	GH_y	GH_z	GH_yy	EL_x	PS_y
       0.0              -20.82          6.067          54.13          64.82          1.361         -10.73          52.48           75.2          5.673          25.74          27.43
   0.03712              -20.82          6.071          54.12          64.82          1.362         -10.73          52.46          75.19          5.664          25.75          27.44
   0.07425              -20.83          6.076          54.12          64.82          1.363         -10.73          52.43          75.18          5.655          25.75          27.46
    0.1114              -20.84          6.081          54.11          64.81          1.364         -10.73          52.41          75.16          5.645          25.76          27.47
    0.1485              -20.84          6.086           54.1          64.81          1.365         -10.73          52.38          75.15          5.635          25.76          27.48
    0.1856              -20.85          6.092           54.1          64.81          1.366         -10.74          52.35          75.14          5.624          25.77           27.5
    0.2227              -20.85          6.098          54.09          64.81          1.367         -10.74          52.32          75.12          5.612          25.77          27.51
    0.2599              -20.86          6.104          54.08          64.81          1.368         -10.74          52.29          75.11            5.6          25.78          27.53
     0.297              -20.87          6.111          54.08          64.81          1.369         -10.74          52.25          75.09          5.586          25.79          27.55
    0.3341              -20.88          6.119          54.07          64.81           1.37         -10.74          52.21          75.07          5.572          25.79          27.57
    0.3712              -20.89          6.127          54.06          64.81          1.372         -10.75          52.17          75.05          5.556           25.8          27.59
    0.4084               -20.9          6.135          54.05          64.81          1.373         -10.75          52.13          75.03           5.54          25.81          27.61
    0.4455              -20.91          6.145          54.04          64.81          1.375         -10.75          52.08          75.01          5.522          25.82          27.63
    0.4826              -20.92          6.155          54.03          64.81          1.377         -10.75          52.03          74.99          5.502          25.83          27.66
    0.5197              -20.93          6.165          54.01          64.81          1.378         -10.75          51.98          74.96          5.481          25.84          27.69
    0.5569              -20.94          6.177           54.0           64.8          1.381         -10.76          51.92          74.94          5.458          25.85          27.72
     0.594              -20.96           6.19          53.99           64.8          1.383         -10.76          51.85           74.9          5.434          25.86          27.75
    0.6311              -20.97          6.204          53.97           64.8          1.385         -10.76          51.78          74.87          5.407          25.88          27.79
    0.6682              -20.99          6.219          53.95           64.8          1.388         -10.77          51.71          74.84          5.377          25.89          27.83
    0.7054              -21.01          6.236          53.93           64.8          1.391         -10.77          51.62           74.8          5.345          25.91          27.87
    0.7425              -21.03          6.254          53.91           64.8          1.394         -10.78          51.53          74.75           5.31          25.93          27.92
    0.7796              -21.05          6.274          53.89          64.79          1.397         -10.78          51.43          74.71          5.271          25.95          27.97
    0.8167              -21.07          6.296          53.87          64.79          1.401         -10.79          51.32          74.65          5.228          25.97          28.03
    0.8539               -21.1           6.32          53.84          64.79          1.405         -10.79          51.19          74.59           5.18          25.99          28.09
     0.891              -21.13          6.348          53.81          64.79           1.41          -10.8          51.05          74.53          5.127          26.02          28.16
    0.9281              -21.16          6.378          53.77          64.78          1.415         -10.81           50.9          74.46          5.068          26.05          28.24
    0.9652               -21.2          6.412          53.73          64.78          1.421         -10.82          50.73          74.38          5.002          26.08          28.33
     1.002              -21.24          6.451          53.69          64.77          1.428         -10.83          50.53          74.28          4.927          26.12          28.43
     1.039              -21.29          6.494          53.64          64.77          1.436         -10.84          50.31          74.18          4.843          26.16          28.54
     1.077              -21.34          6.543          53.59          64.76          1.444         -10.85          50.06          74.06          4.747          26.21          28.66
     1.114              -21.41          6.599          53.52          64.76          1.454         -10.86          49.78          73.93          4.638          26.27          28.81
     1.151              -21.48          6.664          53.45          64.75          1.465         -10.88          49.45          73.78          4.513          26.33          28.98
     1.188              -21.56          6.738          53.36          64.74          1.478          -10.9          49.07           73.6          4.368           26.4          29.17
     1.225              -21.65          6.825          53.27          64.73          1.493         -10.92          48.63          73.39            4.2          26.49          29.39
     1.262              -21.77          6.926          53.15          64.72          1.511         -10.94          48.12          73.15          4.004          26.59          29.65
     1.299               -21.9          7.045          53.02          64.71          1.531         -10.97          47.51          72.87          3.772          26.71          29.96
     1.336              -22.05          7.187          52.85          64.69          1.556         -11.01          46.79          72.53          3.497          26.85          30.33
     1.374              -22.24          7.357          52.66          64.67          1.586         -11.05          45.93          72.13          3.166          27.01          30.77
     1.411              -22.47          7.563          52.43          64.65          1.621          -11.1          44.89          71.64          2.767          27.22           31.3
     1.448              -22.74          7.814          52.14          64.62          1.665         -11.17          43.62          71.04          2.279          27.46          31.95
     1.485              -23.08          8.124          51.79          64.59          1.719         -11.24          42.04          70.31          1.677          27.77          32.75
     1.522              -23.51          8.511          51.35          64.54          1.786         -11.34          40.08          69.39         0.9261          28.15          33.75
     1.559              -24.05          8.998           50.8          64.49          1.871         -11.46          37.61          68.23       -0.01979          28.63          35.01
     1.596              -24.73          9.617           50.1          64.42          1.978         -11.62          34.47          66.76         -1.222          29.24          36.61
     1.633               -25.6          10.41           49.2          64.33          2.116         -11.81          30.45          64.87         -2.761          30.02          38.65
     1.671              -26.72          11.43          48.04          64.22          2.293         -12.07          25.29          62.45         -4.736          31.02          41.28
     1.708              -28.15          12.72          46.57          64.07          2.519         -12.39           18.7          59.37         -7.259           32.3          44.64
     1.745              -29.95          14.36          44.71          63.89          2.803          -12.8          10.42          55.48         -10.43          33.91          48.86
     1.782              -32.14          16.35          42.46          63.67          3.149          -13.3          0.321          50.75          -14.3          35.87           54.0
